REM DIRINDEX 1\2,1\4,1\3\5,1\3\6
REM DIRNAME cjc035,folder01,folder02,folder03,folder04,folder05
TITLE ""
FILE "Track52.mp3" MP3
  TRACK 01 AUDIO
    TITLE "4:cjc035_1707"
    INDEX 01 00:00:00
  TRACK 02 AUDIO
    TITLE "5:cjc035_1708"
    INDEX 01 00:03:64
  TRACK 03 AUDIO
    TITLE "6:cjc035_1709"
    INDEX 01 00:05:40
  TRACK 04 AUDIO
    TITLE "5:cjc035_1710"
    INDEX 01 00:07:15
  TRACK 05 AUDIO
    TITLE "6:cjc035_1711"
    INDEX 01 00:08:68
  TRACK 06 AUDIO
    TITLE "5:cjc035_1712"
    INDEX 01 00:10:47
  TRACK 07 AUDIO
    TITLE "6:cjc035_1713"
    INDEX 01 00:12:28
  TRACK 08 AUDIO
    TITLE "5:cjc035_1714"
    INDEX 01 00:14:11
  TRACK 09 AUDIO
    TITLE "6:cjc035_1715"
    INDEX 01 00:15:54
  TRACK 10 AUDIO
    TITLE "5:cjc035_1716"
    INDEX 01 00:17:20
  TRACK 11 AUDIO
    TITLE "6:cjc035_1717"
    INDEX 01 00:18:70
  TRACK 12 AUDIO
    TITLE "5:cjc035_1718"
    INDEX 01 00:20:45
  TRACK 13 AUDIO
    TITLE "6:cjc035_1719"
    INDEX 01 00:22:21
  TRACK 14 AUDIO
    TITLE "5:cjc035_1720"
    INDEX 01 00:23:73
  TRACK 15 AUDIO
    TITLE "6:cjc035_1721"
    INDEX 01 00:25:52
  TRACK 16 AUDIO
    TITLE "5:cjc035_1722"
    INDEX 01 00:27:32
  TRACK 17 AUDIO
    TITLE "6:cjc035_1723"
    INDEX 01 00:29:01
  TRACK 18 AUDIO
    TITLE "5:cjc035_1724"
    INDEX 01 00:30:48
  TRACK 19 AUDIO
    TITLE "6:cjc035_1725"
    INDEX 01 00:32:39
  TRACK 20 AUDIO
    TITLE "5:cjc035_1726"
    INDEX 01 00:34:28
  TRACK 21 AUDIO
    TITLE "6:cjc035_1727"
    INDEX 01 00:36:15
  TRACK 22 AUDIO
    TITLE "5:cjc035_1728"
    INDEX 01 00:38:02
  TRACK 23 AUDIO
    TITLE "6:cjc035_1729"
    INDEX 01 00:39:70
  TRACK 24 AUDIO
    TITLE "5:cjc035_1730"
    INDEX 01 00:41:69
  TRACK 25 AUDIO
    TITLE "6:cjc035_1731"
    INDEX 01 00:43:52
  TRACK 26 AUDIO
    TITLE "5:cjc035_1732"
    INDEX 01 00:45:32
  TRACK 27 AUDIO
    TITLE "6:cjc035_1733"
    INDEX 01 00:47:11
  TRACK 28 AUDIO
    TITLE "5:cjc035_1734"
    INDEX 01 00:48:63
  TRACK 29 AUDIO
    TITLE "6:cjc035_1735"
    INDEX 01 00:50:46
  TRACK 30 AUDIO
    TITLE "5:cjc035_1736"
    INDEX 01 00:52:30
  TRACK 31 AUDIO
    TITLE "6:cjc035_1737"
    INDEX 01 00:54:11
  TRACK 32 AUDIO
    TITLE "5:cjc035_1738"
    INDEX 01 00:55:67
  TRACK 33 AUDIO
    TITLE "6:cjc035_1739"
    INDEX 01 00:57:45
  TRACK 34 AUDIO
    TITLE "5:cjc035_1740"
    INDEX 01 00:59:22
  TRACK 35 AUDIO
    TITLE "6:cjc035_1741"
    INDEX 01 01:01:03
  TRACK 36 AUDIO
    TITLE "5:cjc035_1742"
    INDEX 01 01:02:59
  TRACK 37 AUDIO
    TITLE "6:cjc035_1743"
    INDEX 01 01:04:39
  TRACK 38 AUDIO
    TITLE "5:cjc035_1744"
    INDEX 01 01:06:16
  TRACK 39 AUDIO
    TITLE "6:cjc035_1745"
    INDEX 01 01:07:63
  TRACK 40 AUDIO
    TITLE "5:cjc035_1746"
    INDEX 01 01:09:34
  TRACK 41 AUDIO
    TITLE "6:cjc035_1747"
    INDEX 01 01:11:13
  TRACK 42 AUDIO
    TITLE "5:cjc035_1748"
    INDEX 01 01:12:66
  TRACK 43 AUDIO
    TITLE "6:cjc035_1749"
    INDEX 01 01:14:39
  TRACK 44 AUDIO
    TITLE "5:cjc035_1750"
    INDEX 01 01:16:12
  TRACK 45 AUDIO
    TITLE "6:cjc035_1751"
    INDEX 01 01:17:71
  TRACK 46 AUDIO
    TITLE "5:cjc035_1752"
    INDEX 01 01:19:52
  TRACK 47 AUDIO
    TITLE "6:cjc035_1753"
    INDEX 01 01:21:29
  TRACK 48 AUDIO
    TITLE "5:cjc035_1754"
    INDEX 01 01:23:07
  TRACK 49 AUDIO
    TITLE "6:cjc035_1755"
    INDEX 01 01:24:55
  TRACK 50 AUDIO
    TITLE "5:cjc035_1756"
    INDEX 01 01:26:30
  TRACK 51 AUDIO
    TITLE "6:cjc035_1757"
    INDEX 01 01:28:04
  TRACK 52 AUDIO
    TITLE "5:cjc035_1758"
    INDEX 01 01:29:54
  TRACK 53 AUDIO
    TITLE "6:cjc035_1759"
    INDEX 01 01:31:26
  TRACK 54 AUDIO
    TITLE "5:cjc035_1760"
    INDEX 01 01:32:72
  TRACK 55 AUDIO
    TITLE "6:cjc035_1761"
    INDEX 01 01:34:40
  TRACK 56 AUDIO
    TITLE "5:cjc035_1762"
    INDEX 01 01:36:07
  TRACK 57 AUDIO
    TITLE "6:cjc035_1763"
    INDEX 01 01:37:56
  TRACK 58 AUDIO
    TITLE "5:cjc035_1764"
    INDEX 01 01:39:33
  TRACK 59 AUDIO
    TITLE "6:cjc035_1765"
    INDEX 01 01:40:74
  TRACK 60 AUDIO
    TITLE "5:cjc035_1766"
    INDEX 01 01:42:37
  TRACK 61 AUDIO
    TITLE "6:cjc035_1767"
    INDEX 01 01:44:17
  TRACK 62 AUDIO
    TITLE "5:cjc035_1768"
    INDEX 01 01:45:73
  TRACK 63 AUDIO
    TITLE "6:cjc035_1769"
    INDEX 01 01:47:50
  TRACK 64 AUDIO
    TITLE "5:cjc035_1770"
    INDEX 01 01:49:28
  TRACK 65 AUDIO
    TITLE "6:cjc035_1771"
    INDEX 01 01:51:03
  TRACK 66 AUDIO
    TITLE "5:cjc035_1772"
    INDEX 01 01:52:53
  TRACK 67 AUDIO
    TITLE "6:cjc035_1773"
    INDEX 01 01:54:37
  TRACK 68 AUDIO
    TITLE "5:cjc035_1774"
    INDEX 01 01:56:22
  TRACK 69 AUDIO
    TITLE "6:cjc035_1775"
    INDEX 01 01:57:66
  TRACK 70 AUDIO
    TITLE "5:cjc035_1776"
    INDEX 01 01:59:38
  TRACK 71 AUDIO
    TITLE "6:cjc035_1777"
    INDEX 01 02:01:21
  TRACK 72 AUDIO
    TITLE "5:cjc035_1778"
    INDEX 01 02:03:04
  TRACK 73 AUDIO
    TITLE "6:cjc035_1779"
    INDEX 01 02:04:47
  TRACK 74 AUDIO
    TITLE "5:cjc035_1780"
    INDEX 01 02:06:12
  TRACK 75 AUDIO
    TITLE "6:cjc035_1781"
    INDEX 01 02:08:11
  TRACK 76 AUDIO
    TITLE "5:cjc035_1782"
    INDEX 01 02:10:12
  TRACK 77 AUDIO
    TITLE "6:cjc035_1783"
    INDEX 01 02:11:61
  TRACK 78 AUDIO
    TITLE "5:cjc035_1784"
    INDEX 01 02:13:34
  TRACK 79 AUDIO
    TITLE "6:cjc035_1785"
    INDEX 01 02:15:05
  TRACK 80 AUDIO
    TITLE "5:cjc035_1786"
    INDEX 01 02:16:52
  TRACK 81 AUDIO
    TITLE "6:cjc035_1787"
    INDEX 01 02:18:29
  TRACK 82 AUDIO
    TITLE "5:cjc035_1788"
    INDEX 01 02:20:05
  TRACK 83 AUDIO
    TITLE "6:cjc035_1789"
    INDEX 01 02:21:51
  TRACK 84 AUDIO
    TITLE "5:cjc035_1790"
    INDEX 01 02:23:27
  TRACK 85 AUDIO
    TITLE "6:cjc035_1791"
    INDEX 01 02:25:04
  TRACK 86 AUDIO
    TITLE "5:cjc035_1792"
    INDEX 01 02:26:58
  TRACK 87 AUDIO
    TITLE "6:cjc035_1793"
    INDEX 01 02:28:37
  TRACK 88 AUDIO
    TITLE "5:cjc035_1794"
    INDEX 01 02:30:13
  TRACK 89 AUDIO
    TITLE "6:cjc035_1795"
    INDEX 01 02:31:69
  TRACK 90 AUDIO
    TITLE "5:cjc035_1796"
    INDEX 01 02:33:48
  TRACK 91 AUDIO
    TITLE "6:cjc035_1797"
    INDEX 01 02:35:30
  TRACK 92 AUDIO
    TITLE "5:cjc035_1798"
    INDEX 01 02:37:11
  TRACK 93 AUDIO
    TITLE "6:cjc035_1799"
    INDEX 01 02:38:65
  TRACK 94 AUDIO
    TITLE "5:cjc035_1800"
    INDEX 01 02:40:45
  TRACK 95 AUDIO
    TITLE "6:cjc035_1801"
    INDEX 01 02:42:22
  TRACK 96 AUDIO
    TITLE "0:"
    INDEX 01 02:43:61
